<mxfile host="65bd71144e">
    <diagram id="lU_gt-9MP0S-Z-pDJT5g" name="Page-1">
        <mxGraphModel dx="755" dy="294" grid="1" gridSize="10" guides="1" tooltips="1" connect="1" arrows="1" fold="1" page="1" pageScale="1" pageWidth="850" pageHeight="1100" math="0" shadow="0">
            <root>
                <mxCell id="0"/>
                <mxCell id="1" parent="0"/>
                <mxCell id="81" style="edgeStyle=none;html=1;entryX=0.5;entryY=0;entryDx=0;entryDy=0;" parent="1" source="82" target="85" edge="1">
                    <mxGeometry relative="1" as="geometry"/>
                </mxCell>
                <mxCell id="82" value="Start" style="strokeWidth=2;html=1;shape=mxgraph.flowchart.terminator;whiteSpace=wrap;" parent="1" vertex="1">
                    <mxGeometry x="370" y="50" width="100" height="60" as="geometry"/>
                </mxCell>
                <mxCell id="83" value="Stop" style="strokeWidth=2;html=1;shape=mxgraph.flowchart.terminator;whiteSpace=wrap;" parent="1" vertex="1">
                    <mxGeometry x="410" y="1030" width="100" height="60" as="geometry"/>
                </mxCell>
                <mxCell id="96" style="edgeStyle=none;html=1;entryX=0.5;entryY=0;entryDx=0;entryDy=0;entryPerimeter=0;" parent="1" source="85" target="95" edge="1">
                    <mxGeometry relative="1" as="geometry"/>
                </mxCell>
                <mxCell id="85" value="Ask for year" style="shape=parallelogram;html=1;strokeWidth=2;perimeter=parallelogramPerimeter;whiteSpace=wrap;rounded=1;arcSize=12;size=0.23;" parent="1" vertex="1">
                    <mxGeometry x="365" y="140" width="110" height="60" as="geometry"/>
                </mxCell>
                <mxCell id="98" style="edgeStyle=none;html=1;entryX=0.5;entryY=0;entryDx=0;entryDy=0;" parent="1" source="95" target="97" edge="1">
                    <mxGeometry relative="1" as="geometry"/>
                </mxCell>
                <mxCell id="99" style="edgeStyle=none;html=1;rounded=0;entryX=0.5;entryY=0;entryDx=0;entryDy=0;" parent="1" source="95" target="101" edge="1">
                    <mxGeometry relative="1" as="geometry">
                        <mxPoint x="700" y="340" as="targetPoint"/>
                        <Array as="points">
                            <mxPoint x="700" y="280"/>
                        </Array>
                    </mxGeometry>
                </mxCell>
                <mxCell id="95" value="try" style="strokeWidth=2;html=1;shape=mxgraph.flowchart.decision;whiteSpace=wrap;" parent="1" vertex="1">
                    <mxGeometry x="370" y="230" width="100" height="100" as="geometry"/>
                </mxCell>
                <mxCell id="105" style="edgeStyle=orthogonalEdgeStyle;rounded=0;html=1;entryX=0.5;entryY=0;entryDx=0;entryDy=0;entryPerimeter=0;" parent="1" source="97" target="121" edge="1">
                    <mxGeometry relative="1" as="geometry">
                        <mxPoint x="350" y="475" as="targetPoint"/>
                    </mxGeometry>
                </mxCell>
                <mxCell id="97" value="convert string to int" style="rounded=1;whiteSpace=wrap;html=1;absoluteArcSize=1;arcSize=14;strokeWidth=2;" parent="1" vertex="1">
                    <mxGeometry x="345" y="360" width="150" height="60" as="geometry"/>
                </mxCell>
                <mxCell id="100" value="Exception" style="text;html=1;align=center;verticalAlign=middle;resizable=0;points=[];autosize=1;strokeColor=none;fillColor=none;" parent="1" vertex="1">
                    <mxGeometry x="460" y="260" width="70" height="20" as="geometry"/>
                </mxCell>
                <mxCell id="112" style="edgeStyle=orthogonalEdgeStyle;html=1;rounded=0;strokeColor=none;" parent="1" source="101" target="83" edge="1">
                    <mxGeometry relative="1" as="geometry">
                        <mxPoint x="550" y="740" as="targetPoint"/>
                        <Array as="points">
                            <mxPoint x="600" y="700"/>
                            <mxPoint x="270" y="700"/>
                        </Array>
                    </mxGeometry>
                </mxCell>
                <mxCell id="157" style="edgeStyle=orthogonalEdgeStyle;rounded=0;html=1;entryX=0.5;entryY=0;entryDx=0;entryDy=0;" edge="1" parent="1" source="101" target="109">
                    <mxGeometry relative="1" as="geometry">
                        <Array as="points">
                            <mxPoint x="700" y="760"/>
                            <mxPoint x="460" y="760"/>
                        </Array>
                    </mxGeometry>
                </mxCell>
                <mxCell id="101" value="print &quot;Invalid integer&quot;" style="shape=parallelogram;html=1;strokeWidth=2;perimeter=parallelogramPerimeter;whiteSpace=wrap;rounded=1;arcSize=12;size=0.23;" parent="1" vertex="1">
                    <mxGeometry x="650" y="370" width="100" height="60" as="geometry"/>
                </mxCell>
                <mxCell id="111" style="edgeStyle=orthogonalEdgeStyle;rounded=0;html=1;" parent="1" source="109" target="83" edge="1">
                    <mxGeometry relative="1" as="geometry"/>
                </mxCell>
                <mxCell id="109" value="print &quot;Thanks&lt;br&gt;&amp;nbsp;for playing&quot;" style="shape=parallelogram;html=1;strokeWidth=2;perimeter=parallelogramPerimeter;whiteSpace=wrap;rounded=1;arcSize=12;size=0.23;" parent="1" vertex="1">
                    <mxGeometry x="400" y="940" width="120" height="60" as="geometry"/>
                </mxCell>
                <mxCell id="128" style="edgeStyle=orthogonalEdgeStyle;html=1;entryX=0.5;entryY=0;entryDx=0;entryDy=0;entryPerimeter=0;rounded=0;" edge="1" parent="1" source="121" target="122">
                    <mxGeometry relative="1" as="geometry"/>
                </mxCell>
                <mxCell id="140" style="edgeStyle=orthogonalEdgeStyle;rounded=0;html=1;" edge="1" parent="1" source="121" target="141">
                    <mxGeometry relative="1" as="geometry">
                        <mxPoint x="540" y="590" as="targetPoint"/>
                        <Array as="points">
                            <mxPoint x="470" y="500"/>
                        </Array>
                    </mxGeometry>
                </mxCell>
                <mxCell id="121" value="year &amp;lt; 0" style="strokeWidth=2;html=1;shape=mxgraph.flowchart.decision;whiteSpace=wrap;" vertex="1" parent="1">
                    <mxGeometry x="280" y="450" width="100" height="100" as="geometry"/>
                </mxCell>
                <mxCell id="129" style="edgeStyle=orthogonalEdgeStyle;rounded=0;html=1;entryX=0.5;entryY=0;entryDx=0;entryDy=0;" edge="1" parent="1" source="122" target="142">
                    <mxGeometry relative="1" as="geometry">
                        <mxPoint x="430" y="630" as="targetPoint"/>
                    </mxGeometry>
                </mxCell>
                <mxCell id="130" style="edgeStyle=orthogonalEdgeStyle;rounded=0;html=1;entryX=0.5;entryY=0;entryDx=0;entryDy=0;entryPerimeter=0;" edge="1" parent="1" source="122" target="123">
                    <mxGeometry relative="1" as="geometry">
                        <mxPoint x="220" y="730" as="targetPoint"/>
                    </mxGeometry>
                </mxCell>
                <mxCell id="122" value="year % 4 == &lt;br&gt;0 or year % 400 &lt;br&gt;== 0" style="strokeWidth=2;html=1;shape=mxgraph.flowchart.decision;whiteSpace=wrap;" vertex="1" parent="1">
                    <mxGeometry x="210" y="580" width="110" height="100" as="geometry"/>
                </mxCell>
                <mxCell id="135" style="edgeStyle=orthogonalEdgeStyle;rounded=0;html=1;entryX=0.5;entryY=0;entryDx=0;entryDy=0;" edge="1" parent="1" source="123" target="144">
                    <mxGeometry relative="1" as="geometry">
                        <mxPoint x="220" y="870" as="targetPoint"/>
                    </mxGeometry>
                </mxCell>
                <mxCell id="136" style="edgeStyle=orthogonalEdgeStyle;rounded=0;html=1;entryX=0.5;entryY=0;entryDx=0;entryDy=0;" edge="1" parent="1" source="123" target="143">
                    <mxGeometry relative="1" as="geometry">
                        <mxPoint x="380" y="870" as="targetPoint"/>
                    </mxGeometry>
                </mxCell>
                <mxCell id="123" value="year % 100&lt;br&gt;== 0 and year % 400 != 0" style="strokeWidth=2;html=1;shape=mxgraph.flowchart.decision;whiteSpace=wrap;" vertex="1" parent="1">
                    <mxGeometry x="170" y="710" width="100" height="100" as="geometry"/>
                </mxCell>
                <mxCell id="126" value="Yes" style="text;html=1;align=center;verticalAlign=middle;resizable=0;points=[];autosize=1;strokeColor=none;fillColor=none;" vertex="1" parent="1">
                    <mxGeometry x="350" y="470" width="40" height="20" as="geometry"/>
                </mxCell>
                <mxCell id="127" value="No" style="text;html=1;align=center;verticalAlign=middle;resizable=0;points=[];autosize=1;strokeColor=none;fillColor=none;" vertex="1" parent="1">
                    <mxGeometry x="290" y="530" width="30" height="20" as="geometry"/>
                </mxCell>
                <mxCell id="131" value="No" style="text;html=1;align=center;verticalAlign=middle;resizable=0;points=[];autosize=1;strokeColor=none;fillColor=none;" vertex="1" parent="1">
                    <mxGeometry x="315" y="610" width="30" height="20" as="geometry"/>
                </mxCell>
                <mxCell id="132" value="Yes" style="text;html=1;align=center;verticalAlign=middle;resizable=0;points=[];autosize=1;strokeColor=none;fillColor=none;" vertex="1" parent="1">
                    <mxGeometry x="220" y="660" width="40" height="20" as="geometry"/>
                </mxCell>
                <mxCell id="137" value="Yes" style="text;html=1;align=center;verticalAlign=middle;resizable=0;points=[];autosize=1;strokeColor=none;fillColor=none;" vertex="1" parent="1">
                    <mxGeometry x="180" y="800" width="40" height="20" as="geometry"/>
                </mxCell>
                <mxCell id="138" value="No" style="text;html=1;align=center;verticalAlign=middle;resizable=0;points=[];autosize=1;strokeColor=none;fillColor=none;" vertex="1" parent="1">
                    <mxGeometry x="260" y="740" width="30" height="20" as="geometry"/>
                </mxCell>
                <mxCell id="156" style="edgeStyle=orthogonalEdgeStyle;rounded=0;html=1;entryX=0.5;entryY=0;entryDx=0;entryDy=0;" edge="1" parent="1" source="141" target="109">
                    <mxGeometry relative="1" as="geometry"/>
                </mxCell>
                <mxCell id="141" value="show&lt;br&gt;Invalid Year" style="shape=parallelogram;html=1;strokeWidth=2;perimeter=parallelogramPerimeter;whiteSpace=wrap;rounded=1;arcSize=12;size=0.23;" vertex="1" parent="1">
                    <mxGeometry x="420" y="530" width="100" height="50" as="geometry"/>
                </mxCell>
                <mxCell id="155" style="edgeStyle=orthogonalEdgeStyle;rounded=0;html=1;" edge="1" parent="1" source="142">
                    <mxGeometry relative="1" as="geometry">
                        <mxPoint x="460" y="940" as="targetPoint"/>
                    </mxGeometry>
                </mxCell>
                <mxCell id="142" value="Show &quot;This is &lt;br&gt;not a leap year&quot;" style="shape=parallelogram;html=1;strokeWidth=2;perimeter=parallelogramPerimeter;whiteSpace=wrap;rounded=1;arcSize=12;size=0.23;" vertex="1" parent="1">
                    <mxGeometry x="330" y="650" width="130" height="60" as="geometry"/>
                </mxCell>
                <mxCell id="154" style="edgeStyle=orthogonalEdgeStyle;rounded=0;html=1;entryX=0.5;entryY=0;entryDx=0;entryDy=0;" edge="1" parent="1" source="143" target="109">
                    <mxGeometry relative="1" as="geometry">
                        <Array as="points">
                            <mxPoint x="330" y="860"/>
                            <mxPoint x="460" y="860"/>
                        </Array>
                    </mxGeometry>
                </mxCell>
                <mxCell id="143" value="This is a &lt;br&gt;leap year" style="shape=parallelogram;html=1;strokeWidth=2;perimeter=parallelogramPerimeter;whiteSpace=wrap;rounded=1;arcSize=12;size=0.23;" vertex="1" parent="1">
                    <mxGeometry x="280" y="780" width="100" height="60" as="geometry"/>
                </mxCell>
                <mxCell id="153" style="edgeStyle=orthogonalEdgeStyle;rounded=0;html=1;entryX=0.5;entryY=0;entryDx=0;entryDy=0;" edge="1" parent="1" source="144" target="109">
                    <mxGeometry relative="1" as="geometry">
                        <Array as="points">
                            <mxPoint x="220" y="910"/>
                            <mxPoint x="460" y="910"/>
                        </Array>
                    </mxGeometry>
                </mxCell>
                <mxCell id="144" value="This is not a &lt;br&gt;leap year" style="shape=parallelogram;html=1;strokeWidth=2;perimeter=parallelogramPerimeter;whiteSpace=wrap;rounded=1;arcSize=12;size=0.23;" vertex="1" parent="1">
                    <mxGeometry x="170" y="840" width="100" height="60" as="geometry"/>
                </mxCell>
                <mxCell id="146" style="edgeStyle=orthogonalEdgeStyle;rounded=0;html=1;exitX=1;exitY=0.75;exitDx=0;exitDy=0;entryX=1;entryY=0.5;entryDx=0;entryDy=0;" edge="1" parent="1" source="143" target="143">
                    <mxGeometry relative="1" as="geometry"/>
                </mxCell>
            </root>
        </mxGraphModel>
    </diagram>
</mxfile>